# xmcd CD database file
#
# Track frame offsets:
#	150
#	12602
#	24591
#	34820
#	49868
#	60229
#	75107
#	93840
#	113172
#	128210
#	146588
#	166615
#	181244
#
# Disc length: 2619 seconds
#
# Revision: 2
# Processed by: cddbd v1.5.2PL0 Copyright (c) Steve Scherf et al.
# Submitted via: jetAudio 7
#
DISCID=970a390d
DTITLE=Chet Atkins - Picks On The Grammys
DYEAR=1900
DGENRE=Country
TTITLE0=Tears
TTITLE1=Nut Sundae
TTITLE2=Snowbird
TTITLE3=I'll See You In My Dreams
TTITLE4=The Entertainer
TTITLE5=Caravan
TTITLE6=Ready For The Times To Get Better
TTITLE7=Cosmic Square Dance
TTITLE8=So Soft, Your Goodbye
TTITLE9=Poor Boy Blues
TTITLE10=Sneakin' Around
TTITLE11=Young Thing
TTITLE12=Jam Man
EXTD=
EXTT0=
EXTT1=
EXTT2=
EXTT3=
EXTT4=
EXTT5=
EXTT6=
EXTT7=
EXTT8=
EXTT9=
EXTT10=
EXTT11=
EXTT12=
PLAYORDER=
